<svg id="Layer_1" data-name="Layer 1" xmlns="http://www.w3.org/2000/svg" viewBox="0 0 220.07 41.55"><defs><style>.cls-1{fill:#509910;}.cls-1,.cls-2,.cls-3,.cls-4{fill-rule:evenodd;}.cls-3{fill:#fff;}.cls-4{fill:#e20e2d;}.cls-5{font-size:34.82px;fill:gray;font-family:MyriadPro-SemiboldSemiCn, Myriad Pro;font-weight:600;}.cls-6{letter-spacing:0em;}.cls-7{letter-spacing:0em;}.cls-8{letter-spacing:-0.01em;}.cls-9{letter-spacing:0em;}.cls-10{letter-spacing:0em;}</style></defs><path class="cls-1" d="M41.78,27.9C35,20.76,20.51,17.77,11.24,22.24L20.93,8.82l4.63,7.33a.9.9,0,0,0,1.23.3h0l3.49-2.34,8.43,9.07h0a.32.32,0,0,0,.47,0,.31.31,0,0,0,.09-.22.29.29,0,0,0,0-.16h0c-1.75-3.06-4.88-8.48-7.49-13a1,1,0,0,0-1.73-.39L27.72,11l-6-9.2,0-.05h0a1,1,0,0,0-.83-.42,1,1,0,0,0-.78.36h0l0,.06s0,0,0,0Q10.14,15.11.21,28.35h0a.74.74,0,0,0,.17,1,.71.71,0,0,0,.43.14.72.72,0,0,0,.32-.08h0l.54-.28C7.2,26.32,16.42,27,27.75,30.91c3.77,3.2,17.37.29,14-3"/><polygon class="cls-1" points="0.99 28.62 20.95 3.46 27.14 13.63 30.81 11.41 39.31 22.81 42.11 28.29 29.74 26.55 22.93 23.65 12.77 23.65 6.5 25.33 0.99 28.62"/><path class="cls-2" d="M10.84,21.17a4.33,4.33,0,0,1-.44-1c-.44-1.51-.2-3.69,1.25-4.76a3.2,3.2,0,0,1,2-.63,3.13,3.13,0,0,1,1.46.51,3.93,3.93,0,0,1,1.41,1.82c.95,2,5.13,3.83,8.14,3,.82-.21,2.56-1.24,6-3.29a3,3,0,0,1,1.72-.48,3.37,3.37,0,0,1,2.34,1.43,4.43,4.43,0,0,1,.45,3.57,7.25,7.25,0,0,1-2.65,3.85,12.83,12.83,0,0,1-4.77,2.63,15.31,15.31,0,0,1-10.48-.72A14.91,14.91,0,0,1,10.84,21.17Z"/><path class="cls-3" d="M16,16.86a.93.93,0,0,0-.62.82,1.05,1.05,0,0,0,.93.86c.18,0,.33,0,.42.05s0,.29.06.54a.94.94,0,0,0,.79.7c.35,0,.52-.29.7-.19s.06.33.16.64a1.42,1.42,0,0,0,1.48.94c.36-.1.43-.47.71-.44s.26.32.55.6a1.48,1.48,0,0,0,1.73.26c.27-.24.19-.67.37-.7s.24.32.57.57a1.31,1.31,0,0,0,1.51,0c.36-.33.16-.92.45-1s.27.14.6.22a1.28,1.28,0,0,0,1.39-.56c.1-.25-.06-.43.09-.58s.42,0,.76-.13a1.1,1.1,0,0,0,.62-1.21A.64.64,0,0,0,29,17.9c-.61-.39-1.78,1.06-3.23,1.78a7.19,7.19,0,0,1-6.37-.26C17.53,18.37,16.85,16.56,16,16.86Z"/><path class="cls-4" d="M20.27,28.06c.11.27.87-.18,1.77.21,1.23.54,1.66,2.14,1.9,3a17.29,17.29,0,0,1,.32,2.78,9,9,0,0,0,1.37,4.21A7.05,7.05,0,0,0,30,40.89c.8.16,2.92.57,4.49-.68a2.87,2.87,0,0,0,1.18-1.87,3.2,3.2,0,0,0-1.25-2.55c-1-.86-1.66-.36-3.08-1.14A5.16,5.16,0,0,1,28.93,32c-.51-1.47.37-2-.2-3.56-.31-.84-1.07-2.06-2.09-2.17-.63-.07-.82.35-1.78.35s-1-.35-1.73-.39C21.6,26.15,20.1,27.65,20.27,28.06Z"/><text class="cls-5" transform="translate(48.51 28.54)"><tspan class="cls-6">H</tspan><tspan class="cls-7" x="21.69" y="0">i</tspan><tspan class="cls-8" x="30.08" y="0">k</tspan><tspan class="cls-9" x="46.2" y="0">ers</tspan><tspan class="cls-10" x="87.81" y="0">G</tspan><tspan x="108.91" y="0">uide</tspan></text></svg>