<svg id="Layer_1" data-name="Layer 1" xmlns="http://www.w3.org/2000/svg" viewBox="0 0 150.85 28"><defs><style>.cls-1{fill:gray;}.cls-1,.cls-2{fill-rule:evenodd;}.cls-2{fill:#428813;}</style></defs><path class="cls-1" d="M68.94,3.07H67.08A.88.88,0,0,0,66.2,4h0v19.2a.89.89,0,0,0,.89.89h1.85a.88.88,0,0,0,.88-.89V4a.87.87,0,0,0-.88-.88h0m7.81,0H74.89A.87.87,0,0,0,74,4h0v19.2a.88.88,0,0,0,.88.89h1.86a.88.88,0,0,0,.88-.89V4a.88.88,0,0,0-.88-.88h0m56.76,0h-1.85a.88.88,0,0,0-.89.88v19.2a.89.89,0,0,0,.89.89h1.85a.89.89,0,0,0,.89-.89V4a.89.89,0,0,0-.89-.88h0m-7.82,5.69h-1.86a.89.89,0,0,0-.88.89h0V23.16a.89.89,0,0,0,.88.88h1.86a.88.88,0,0,0,.88-.88h0V9.65a.88.88,0,0,0-.88-.89h0M95.23,3.07H80A.88.88,0,0,0,79.1,4h0V5.6a.89.89,0,0,0,.89.89h5.76V23.15a.89.89,0,0,0,.89.89h1.94a.88.88,0,0,0,.88-.89V6.49h5.77a.89.89,0,0,0,.89-.89V4a.88.88,0,0,0-.89-.88h0"/><path class="cls-1" d="M103.11,8H103a5.71,5.71,0,0,0-4.62,3.84V9.65a.89.89,0,0,0-.88-.89H95.65a.88.88,0,0,0-.88.89h0v13.5a.88.88,0,0,0,.88.89h1.86a.89.89,0,0,0,.88-.89h0V18c0-3.85,1.87-5.9,4.63-6.22h0a1.1,1.1,0,0,0,1-1.1V8.84a.88.88,0,0,0-.88-.89h0m12.31,10.37c0,2-1.8,3.32-4.19,3.32-1.71,0-3.06-.84-3.06-2.33v-.06c0-1.53,1.35-2.46,3.63-2.46a10.35,10.35,0,0,1,3.62.63ZM112,8a13.28,13.28,0,0,0-5.26,1,.87.87,0,0,0-.5,1.09h0l.43,1.27h0a.89.89,0,0,0,1.13.54h0a10.31,10.31,0,0,1,3.68-.66c2.51,0,3.89,1.2,3.89,3.38v.3a13.31,13.31,0,0,0-4.37-.66c-3.69,0-6.41,1.68-6.41,5.19v.06c0,3.17,2.63,4.88,5.63,4.88a6.39,6.39,0,0,0,5.12-2.28v1.07a.89.89,0,0,0,.89.88H118a.89.89,0,0,0,.89-.88h0v-8.5c0-4.22-2.28-6.68-7-6.68Zm14.8-3.26a2,2,0,1,0-2,2,2,2,0,0,0,2-2m18.31,10c-1.86-.6-3.57-1.08-3.57-2.21v-.06c0-.93.81-1.59,2.22-1.59a8.41,8.41,0,0,1,3.74,1.09.88.88,0,0,0,1.14-.34l.49-.88a1.12,1.12,0,0,0-.46-1.53h0A10.93,10.93,0,0,0,143.83,8c-3.15,0-5.64,1.83-5.64,4.83v.06c0,3,2.61,4,4.95,4.64,1.86.57,3.53,1,3.53,2.22v.06c0,1-.9,1.7-2.45,1.7A8.5,8.5,0,0,1,139.73,20a.89.89,0,0,0-1.2.28h0l-.53.81h0a1.11,1.11,0,0,0,.29,1.5,11.11,11.11,0,0,0,5.84,1.75c3.29,0,5.87-1.65,5.87-5v-.06c0-2.85-2.61-3.9-4.91-4.62M54.15,7.32l3.6,8.39.39.95h-8l.39-.95ZM64.49,22.81,56,3.45h0a.89.89,0,0,0-.81-.53H53.09a.88.88,0,0,0-.81.53h0L43.82,22.81h0A.88.88,0,0,0,44.29,24a.94.94,0,0,0,.34.07h1.55a1.34,1.34,0,0,0,1.21-.79l1.42-3.33H59.5l1.42,3.33a1.33,1.33,0,0,0,1.21.79h1.54a.89.89,0,0,0,.89-.89.8.8,0,0,0-.07-.34Z"/><path class="cls-2" d="M38.39,24.43c-6.23-6.58-19.58-9.33-28.1-5.21L19.21,6.87l4.26,6.74a.81.81,0,0,0,1.12.28h0l3.22-2.15,7.75,8.34h0a.3.3,0,0,0,.43,0,.29.29,0,0,0,.09-.21.42.42,0,0,0,0-.15h0c-1.61-2.81-4.49-7.8-6.88-11.93a1,1,0,0,0-1.6-.35L25.45,8.91,20,.44l0,0h0A.93.93,0,0,0,19.17,0a.94.94,0,0,0-.72.33h0a.21.21,0,0,0,0,.06l0,0Q9.28,12.64.13,24.84h0a.69.69,0,0,0,.56,1.09A.6.6,0,0,0,1,25.85H1l.49-.26C6.57,23,18,19.13,25.9,25.18c3.47,2.94,15.57,2.28,12.49-.75"/></svg>