<svg id="Layer_1" data-name="Layer 1" xmlns="http://www.w3.org/2000/svg" viewBox="0 0 42.77 42.77"><defs><style>.cls-1{fill:#509910;}.cls-1,.cls-2,.cls-3,.cls-4{fill-rule:evenodd;}.cls-3{fill:#fff;}.cls-4{fill:#e20e2d;}</style></defs><path class="cls-1" d="M41.45,28.56c-6.77-7.15-21.27-10.13-30.54-5.67L20.6,9.47l4.63,7.33a.91.91,0,0,0,1.23.31l0,0h0L30,14.74l8.43,9.07h0a.33.33,0,0,0,.47,0,.32.32,0,0,0,.09-.23.24.24,0,0,0,0-.15h0c-1.75-3.06-4.87-8.47-7.48-13a1.05,1.05,0,0,0-1.73-.39L27.39,11.7l-6-9.2,0,0v0h0a1,1,0,0,0-1.61-.05h0l0,.06,0,0Q9.82,15.76-.13,29h0a.74.74,0,0,0,.17,1.05.79.79,0,0,0,.43.14.89.89,0,0,0,.32-.08h0l.54-.28c5.53-2.86,14.75-2.2,26.08,1.73,3.77,3.2,17.37.29,14-3"/><polygon class="cls-1" points="0.66 29.27 20.61 4.12 26.81 14.29 30.48 12.07 38.98 23.46 41.78 28.95 29.41 27.21 22.6 24.3 12.43 24.3 6.17 25.98 0.66 29.27"/><path class="cls-2" d="M11.1,21.12a4.34,4.34,0,0,1-.41-1,4.27,4.27,0,0,1,1.19-4.53,2.92,2.92,0,0,1,1.93-.6,3,3,0,0,1,1.39.48,3.85,3.85,0,0,1,1.34,1.74c.9,1.94,4.89,3.64,7.75,2.88C25.07,19.93,26.72,19,30,17a2.84,2.84,0,0,1,1.64-.46,3.21,3.21,0,0,1,2.23,1.37,4.23,4.23,0,0,1,.43,3.39A6.88,6.88,0,0,1,31.8,25a12.2,12.2,0,0,1-4.53,2.51,14.56,14.56,0,0,1-10-.69A14.23,14.23,0,0,1,11.1,21.12Z"/><path class="cls-3" d="M16,17a.86.86,0,0,0-.59.78,1,1,0,0,0,.89.82c.17,0,.31-.05.4.05s0,.27,0,.5a.89.89,0,0,0,.76.67c.33,0,.49-.27.66-.18s.06.32.15.61a1.35,1.35,0,0,0,1.41.9c.35-.1.42-.45.67-.43s.25.31.54.58a1.4,1.4,0,0,0,1.64.25c.26-.23.18-.64.35-.67s.23.31.54.54a1.25,1.25,0,0,0,1.44,0c.34-.31.15-.88.43-1s.25.13.57.21a1.21,1.21,0,0,0,1.32-.53c.1-.25-.05-.41.09-.56s.4,0,.73-.12a1.05,1.05,0,0,0,.59-1.15.67.67,0,0,0-.26-.35c-.58-.36-1.69,1-3.07,1.7a6.82,6.82,0,0,1-6.06-.25C17.48,18.45,16.82,16.73,16,17Z"/><path class="cls-4" d="M20.08,27.68c.11.26.83-.17,1.69.2,1.17.51,1.58,2,1.81,2.86a17,17,0,0,1,.3,2.65,8.5,8.5,0,0,0,1.31,4,6.71,6.71,0,0,0,4.16,2.5c.77.15,2.79.54,4.28-.65a2.71,2.71,0,0,0,1.12-1.78A3,3,0,0,0,33.56,35c-1-.82-1.58-.35-2.93-1.08a5,5,0,0,1-2.31-2.5c-.48-1.4.36-1.91-.19-3.4-.29-.79-1-2-2-2.06-.61-.07-.79.33-1.69.33s-1-.32-1.66-.37C21.35,25.86,19.92,27.29,20.08,27.68Z"/></svg>