<svg id="Layer_1" data-name="Layer 1" xmlns="http://www.w3.org/2000/svg" viewBox="0 0 42.77 42.77"><defs><style>.cls-1,.cls-3{fill:#428813;}.cls-2{fill:#fff;}.cls-2,.cls-3,.cls-4,.cls-5{fill-rule:evenodd;}.cls-4{fill:#eaeaea;}.cls-5{fill:#e73c32;}</style></defs><rect class="cls-1" x="0.14" y="0.1" width="42.52" height="42.52" rx="2"/><path class="cls-2" d="M39.55,28.3c-6-6.3-18.77-8.94-26.95-5l8.56-11.84,4.08,6.47a.79.79,0,0,0,1.08.27l0,0h0l3.08-2.06,7.44,8h0a.3.3,0,0,0,.42,0,.28.28,0,0,0,.08-.2.35.35,0,0,0,0-.14h0c-1.55-2.7-4.31-7.48-6.61-11.44-.39-.67-.85-.78-1.53-.34l-2.08,1.43L21.89,5.3l0,0h0a.9.9,0,0,0-1.42,0h0l0,0,0,0Q11.63,17,2.86,28.69h0a.67.67,0,0,0,.15.92.69.69,0,0,0,.39.12.55.55,0,0,0,.28-.07h0l.47-.24c4.89-2.53,13-1.95,23,1.53,3.33,2.82,15.33.25,12.38-2.66"/><polygon class="cls-2" points="3.56 28.93 21.16 6.74 26.63 15.71 29.87 13.75 37.37 23.81 39.84 28.65 28.92 27.11 22.92 24.55 13.95 24.55 8.41 26.03 3.56 28.93"/><path class="cls-3" d="M12.92,22.09a3.61,3.61,0,0,1-.37-.84,3.79,3.79,0,0,1,1-4,2.67,2.67,0,0,1,1.7-.52,2.59,2.59,0,0,1,1.22.42,3.31,3.31,0,0,1,1.18,1.53c.79,1.71,4.3,3.2,6.82,2.54a34.4,34.4,0,0,0,5.05-2.76A2.57,2.57,0,0,1,31,18.06,2.78,2.78,0,0,1,33,19.27a3.72,3.72,0,0,1,.38,3,6.14,6.14,0,0,1-2.22,3.22,10.73,10.73,0,0,1-4,2.2,12.87,12.87,0,0,1-8.77-.6A12.5,12.5,0,0,1,12.92,22.09Z"/><path class="cls-4" d="M17.2,18.49a.78.78,0,0,0-.52.68.87.87,0,0,0,.78.72c.15,0,.27,0,.35.05s0,.24.05.44a.78.78,0,0,0,.66.59c.29,0,.44-.24.59-.16s.05.28.13.54a1.19,1.19,0,0,0,1.24.79c.3-.08.36-.4.59-.37s.22.26.47.5a1.23,1.23,0,0,0,1.44.22c.23-.2.16-.56.32-.58s.19.26.47.47a1.12,1.12,0,0,0,1.27,0c.29-.28.13-.78.37-.86s.22.11.51.18a1,1,0,0,0,1.16-.46c.08-.22,0-.36.07-.49s.36,0,.64-.11a.91.91,0,0,0,.52-1,.58.58,0,0,0-.22-.31c-.51-.32-1.49.9-2.7,1.5a6,6,0,0,1-5.33-.22C18.53,19.75,18,18.24,17.2,18.49Z"/><path class="cls-5" d="M20.17,27.73c.34.14.65.11,1.6.39,1.22.35,1.6,1.81,1.83,2.64a16.85,16.85,0,0,1,.3,2.64,8.45,8.45,0,0,0,1.31,4,6.68,6.68,0,0,0,4.16,2.49c.77.15,2.79.55,4.28-.65a2.75,2.75,0,0,0,1.12-1.78,3,3,0,0,0-1.19-2.42c-1-.82-1.58-.34-2.93-1.08a5,5,0,0,1-2.31-2.5c-.48-1.4.36-1.91-.19-3.39-.29-.8-1-2-2-2.07-.61-.06-.79.34-1.69.34s-1-.33-1.66-.38a3.79,3.79,0,0,0-2.76,1.73S20.14,27.71,20.17,27.73Z"/></svg>