<svg id="Layer_1" data-name="Layer 1" xmlns="http://www.w3.org/2000/svg" viewBox="0 0 42.77 42.77"><defs><style>.cls-1{fill:#509910;}.cls-1,.cls-2,.cls-3,.cls-4{fill-rule:evenodd;}.cls-2{fill:#264c22;}.cls-3{fill:#fff;}.cls-4{fill:#e73c32;}</style></defs><path class="cls-1" d="M41.47,28.89C34.7,21.74,20.2,18.75,10.93,23.22L20.62,9.8l4.63,7.33a.91.91,0,0,0,1.23.31l0,0h0L30,15.07l8.43,9.07h0a.33.33,0,0,0,.56-.24.29.29,0,0,0,0-.16h0c-1.75-3.06-4.87-8.47-7.48-13a1.05,1.05,0,0,0-1.73-.39L27.4,12,21.45,2.82l0,0v0h0a1,1,0,0,0-1.61,0h0s0,0-.05.06l0,0Q9.84,16.08-.11,29.33h0a.73.73,0,0,0,.17,1,.72.72,0,0,0,.43.15.89.89,0,0,0,.32-.08h0l.54-.28C6.89,27.3,16.11,28,27.44,31.89c3.77,3.2,17.37.29,14-3"/><polygon class="cls-1" points="0.68 29.6 20.63 4.45 26.83 14.62 30.5 12.4 39 23.79 41.8 29.28 29.43 27.54 22.62 24.63 12.45 24.63 6.18 26.31 0.68 29.6"/><path class="cls-2" d="M11.12,21.45a4.34,4.34,0,0,1-.41-1A4.27,4.27,0,0,1,11.9,16a2.92,2.92,0,0,1,1.93-.6,3,3,0,0,1,1.39.48,3.85,3.85,0,0,1,1.34,1.74c.9,1.94,4.89,3.64,7.75,2.88.78-.2,2.43-1.18,5.74-3.13a2.84,2.84,0,0,1,1.64-.46,3.21,3.21,0,0,1,2.22,1.36,4.23,4.23,0,0,1,.44,3.4,6.92,6.92,0,0,1-2.53,3.66,12.18,12.18,0,0,1-4.54,2.51,14.54,14.54,0,0,1-10-.69A14.23,14.23,0,0,1,11.12,21.45Z"/><path class="cls-3" d="M16,17.35a.86.86,0,0,0-.59.78,1,1,0,0,0,.89.82c.17,0,.3-.05.4.05s0,.27,0,.5a.88.88,0,0,0,.76.67c.33,0,.49-.27.66-.18s.06.32.15.61a1.35,1.35,0,0,0,1.41.9c.35-.1.41-.45.67-.43s.25.31.54.58a1.4,1.4,0,0,0,1.64.25c.26-.23.18-.64.35-.67s.23.31.54.54a1.25,1.25,0,0,0,1.44,0c.34-.31.15-.88.43-1s.25.13.57.21a1.21,1.21,0,0,0,1.32-.53c.1-.25,0-.41.09-.56s.4,0,.73-.12a1.05,1.05,0,0,0,.59-1.15.67.67,0,0,0-.26-.35c-.58-.36-1.69,1-3.07,1.7a6.82,6.82,0,0,1-6.06-.25C17.5,18.78,16.84,17.06,16,17.35Z"/><path class="cls-4" d="M20.17,28c.22.06.65.12,1.6.39,1.22.36,1.6,1.82,1.83,2.64a17,17,0,0,1,.3,2.65,8.39,8.39,0,0,0,1.31,4,6.71,6.71,0,0,0,4.16,2.5c.77.15,2.79.54,4.28-.65a2.75,2.75,0,0,0,1.12-1.78,3,3,0,0,0-1.19-2.42c-1-.82-1.58-.35-2.93-1.08a5,5,0,0,1-2.31-2.5c-.48-1.4.36-1.91-.19-3.4-.29-.79-1-2-2-2.06-.61-.07-.79.33-1.69.33s-1-.32-1.66-.37A3.79,3.79,0,0,0,20.06,28Z"/></svg>