<svg id="Layer_1" data-name="Layer 1" xmlns="http://www.w3.org/2000/svg" viewBox="0 0 319.26 42.65"><defs><style>.cls-1{fill:#c6c6c6;}.cls-2{font-size:10px;font-family:MyriadPro-SemiboldSemiExt, Myriad Pro;font-weight:600;}.cls-11,.cls-2{fill:#fff;}.cls-3{letter-spacing:-0.03em;}.cls-4{letter-spacing:0em;}.cls-5{letter-spacing:-0.05em;}.cls-6{letter-spacing:0em;}.cls-7{letter-spacing:-0.03em;}.cls-8{letter-spacing:0em;}.cls-9{fill:#509910;}.cls-10,.cls-11,.cls-12,.cls-9{fill-rule:evenodd;}.cls-10{fill:#264c22;}.cls-12{fill:#e73c32;}.cls-13{fill:gray;}</style></defs><rect class="cls-1" x="226.73" y="9.13" width="89.79" height="18.1" rx="5"/><text class="cls-2" transform="translate(233.92 21.47)"><tspan class="cls-3">T</tspan><tspan class="cls-4" x="5.44" y="0">O</tspan><tspan class="cls-5" x="13.28" y="0"> </tspan><tspan x="15.05" y="0">THE GA</tspan><tspan class="cls-6" x="50.3" y="0">L</tspan><tspan class="cls-7" x="55.7" y="0">A</tspan><tspan class="cls-8" x="62.43" y="0">X</tspan><tspan x="69.06" y="0">Y</tspan></text><path class="cls-9" d="M41.8,28.23C35,21.09,20.53,18.1,11.26,22.57L21,9.15l4.63,7.33a.9.9,0,0,0,1.23.3h0l3.49-2.34,8.43,9.07h0a.32.32,0,0,0,.47,0,.31.31,0,0,0,.09-.22.29.29,0,0,0,0-.16h0c-1.74-3.06-4.87-8.48-7.48-13a1,1,0,0,0-1.73-.39l-2.36,1.62-6-9.2,0,0h0a1,1,0,0,0-.83-.42,1,1,0,0,0-.78.36h0a.21.21,0,0,0,0,.06l0,0Q10.16,15.43.22,28.68h0a.74.74,0,0,0,.17,1,.71.71,0,0,0,.43.14.72.72,0,0,0,.32-.08h0l.54-.28c5.53-2.86,14.75-2.2,26.08,1.73,3.77,3.2,17.37.29,14-3"/><polygon class="cls-9" points="1.01 28.95 20.96 3.79 27.16 13.96 30.83 11.74 39.33 23.14 42.13 28.62 29.76 26.88 22.95 23.98 12.78 23.98 6.51 25.66 1.01 28.95"/><path class="cls-10" d="M11.45,20.79a4,4,0,0,1-.41-1,4.29,4.29,0,0,1,1.19-4.53,3,3,0,0,1,1.93-.59,3,3,0,0,1,1.39.48,3.72,3.72,0,0,1,1.34,1.73c.9,1.95,4.89,3.64,7.75,2.89.78-.21,2.44-1.18,5.74-3.14A2.91,2.91,0,0,1,32,16.21a3.24,3.24,0,0,1,2.23,1.37,4.25,4.25,0,0,1,.43,3.4,7,7,0,0,1-2.53,3.66,12.34,12.34,0,0,1-4.53,2.51,14.62,14.62,0,0,1-10-.69A14.24,14.24,0,0,1,11.45,20.79Z"/><path class="cls-11" d="M16.32,16.69a.9.9,0,0,0-.59.78,1,1,0,0,0,.89.82c.17,0,.31,0,.4.05s0,.27.05.51a.92.92,0,0,0,.76.67c.33,0,.49-.27.66-.18s.06.32.15.61a1.37,1.37,0,0,0,1.41.9c.35-.1.42-.46.68-.43s.24.31.53.58a1.42,1.42,0,0,0,1.64.24c.26-.23.18-.63.35-.66s.23.3.54.53a1.25,1.25,0,0,0,1.44,0c.34-.32.15-.88.43-1s.25.13.57.21a1.21,1.21,0,0,0,1.32-.52c.1-.25-.05-.41.09-.56s.4,0,.73-.13A1,1,0,0,0,29,18a.66.66,0,0,0-.25-.34c-.59-.37-1.7,1-3.08,1.7a6.86,6.86,0,0,1-6.06-.25C17.83,18.13,17.17,16.41,16.32,16.69Z"/><path class="cls-12" d="M20.5,27.39c.22.06.66.11,1.6.39,1.22.35,1.6,1.81,1.83,2.64a16.85,16.85,0,0,1,.3,2.64,8.57,8.57,0,0,0,1.31,4,6.76,6.76,0,0,0,4.16,2.5c.77.15,2.79.54,4.28-.65a2.71,2.71,0,0,0,1.12-1.78,3.05,3.05,0,0,0-1.19-2.43c-1-.81-1.58-.34-2.93-1.08a4.9,4.9,0,0,1-2.3-2.5c-.49-1.4.35-1.91-.19-3.39-.3-.8-1-2-2-2.07-.61-.06-.79.34-1.69.34s-1-.33-1.65-.37a3.79,3.79,0,0,0-2.77,1.72Z"/><path class="cls-13" d="M55,5.07v9.47h8.64V5.07c0-1.47,4.11-1.5,4.11,0V28.54c0,.67-4.11.79-4.11,0V18.2H55V28.54c0,.79-4.11.84-4.11,0V5.07C50.84,3.91,55,3.89,55,5.07Z"/><path class="cls-13" d="M76.64,7a2.26,2.26,0,0,1-4.52,0,2.2,2.2,0,0,1,2.26-2.29A2.18,2.18,0,0,1,76.64,7ZM72.32,28.54v-17c0-1.65,4.15-1.66,4.15,0v17C76.47,29.71,72.32,29.65,72.32,28.54Z"/><path class="cls-13" d="M84.82,19.07h.07a22.49,22.49,0,0,1,1.22-2s2.83-3.9,3.69-5.47,4.25-1.37,4.81,0c-1.48,1.58-5.68,7-5.68,7s5,7.68,6.41,10a3.93,3.93,0,0,1-5,0l-4.31-7.48-1.26,1.67v5.81c0,.92-4.11.95-4.11,0V4c0-1.66,4.11-1.72,4.11,0Z"/><path class="cls-13" d="M99.83,21.2c.1,3.27,2.3,4.52,4.81,4.52a15,15,0,0,0,4.17-.73c.84-.24,2,2.43.63,2.89a17,17,0,0,1-5.43,1c-5.15,0-8.11-3.35-8.11-8.54,0-5,2.78-9.08,7.69-9.08s6.42,4.39,6.46,7.12c0,1.3.17,2.74-.42,2.74Zm6.62-2.9c0-1.91-.74-4.17-3.14-4.17S100,16.49,99.83,18.3Z"/><path class="cls-13" d="M207.87,21.2c.11,3.27,2.3,4.52,4.81,4.52a15.07,15.07,0,0,0,4.18-.73c.84-.24,2,2.43.62,2.89a17,17,0,0,1-5.43,1c-5.15,0-8.11-3.35-8.11-8.54,0-5,2.78-9.08,7.69-9.08s6.43,4.39,6.47,7.12c0,1.3.16,2.74-.42,2.74Zm6.62-2.9c0-1.91-.73-4.17-3.13-4.17s-3.31,2.36-3.49,4.17Z"/><path class="cls-13" d="M113.51,16.84c0-2.05-.15-2.61-.14-5.26,0-.77,3.59-.93,3.59,0,0,1.21.17,3,.17,3h.11c1.47-2.1,1.6-2.38,2.53-3.09a5.9,5.9,0,0,1,2.94-1.21c1-.15,1,4.1-.11,4.18-1.8.12-2.52.47-3,.9a4.49,4.49,0,0,0-1.83,2.91,7.87,7.87,0,0,0-.14,1.4v8.84h-4.11Z"/><path class="cls-13" d="M124.83,24.71a11,11,0,0,0,3.9,1.15c1.71,0,2.54-.77,2.54-1.91s-.63-1.75-2.58-2.55c-3.06-1.25-4.31-3-4.31-4.94,0-3,2.4-5.22,6.06-5.22a12.15,12.15,0,0,1,4.14,1c.87.3.11,3.35-.84,2.93a7.24,7.24,0,0,0-3.2-.91c-1.46,0-2.23.77-2.23,1.78s.7,1.56,2.68,2.4c2.82,1.18,4.18,2.79,4.22,5.15,0,3.21-2.41,5.3-6.52,5.3a12.37,12.37,0,0,1-4.7-1.12C122.33,27.13,123.43,24.14,124.83,24.71Z"/><path class="cls-13" d="M155.54,27.6a24.55,24.55,0,0,1-6.65,1.19c-3.48,0-6.2-.91-8.22-2.89a12.35,12.35,0,0,1-3.2-8.88c0-7.84,5.19-12.19,12-12.19a17.62,17.62,0,0,1,5.43,1c1.16.32.25,3.74-.87,3.38a12.86,12.86,0,0,0-4.56-.87c-4.39,0-7.69,2.75-7.69,8.53s3,8.49,7.17,8.49c1.29,0,3,.22,3-.38s0-5.36,0-6.06-3.26-.44-4-.41-.76-2.86,0-2.86h7.59C156.21,15.67,156.53,27.29,155.54,27.6Z"/><path class="cls-13" d="M173.58,23.49c0,2,0,3.85.13,5.05s-3.52,1.33-3.58,0-.21-2.33-.21-2.33h-.07a5.69,5.69,0,0,1-4.95,2.68c-3.09,0-5.43-2-5.43-7.21V11.58c0-1.61,4.11-1.63,4.11,0v9.48c0,2.68.77,4.45,2.82,4.45a3.12,3.12,0,0,0,2.86-2.09,4.15,4.15,0,0,0,.21-1.39V11.58c0-1.54,4.11-1.59,4.11,0Z"/><path class="cls-13" d="M182.17,7a2.26,2.26,0,0,1-4.52,0,2.2,2.2,0,0,1,2.26-2.29A2.18,2.18,0,0,1,182.17,7Zm-4.31,21.59v-17c0-.82,4.14-.83,4.14,0v17C182,29.28,177.86,29.31,177.86,28.54Z"/><path class="cls-13" d="M200.59,4V23.84c0,1.64.14,3.42.14,4.7s-3.62,1.35-3.62,0a15,15,0,0,0-.21-2.47h-.07a5.49,5.49,0,0,1-4.91,2.82c-3.83,0-6.61-3.48-6.61-8.67,0-5.78,3.23-9,6.89-9a4.61,4.61,0,0,1,4.21,2.09h.07V4C196.48,2.29,200.59,2.33,200.59,4Zm-4.11,14.49a5.4,5.4,0,0,0-.07-1.08,3.37,3.37,0,0,0-3.2-2.89c-2.47,0-3.76,2.51-3.76,5.61s1.36,5.46,3.73,5.46a3.25,3.25,0,0,0,3.16-2.78,4.09,4.09,0,0,0,.14-1.19Z"/></svg>