<svg id="Layer_1" data-name="Layer 1" xmlns="http://www.w3.org/2000/svg" viewBox="0 0 224.32 42.52"><defs><style>.cls-1{fill:#509910;}.cls-1,.cls-2,.cls-3,.cls-4{fill-rule:evenodd;}.cls-2{fill:#264c22;}.cls-3{fill:#fff;}.cls-4{fill:#e73c32;}.cls-5{fill:gray;}</style></defs><path class="cls-1" d="M42.11,27.93c-6.77-7.15-21.28-10.13-30.54-5.67L21.26,8.84l4.63,7.33a.89.89,0,0,0,1.22.31l0,0h0l3.49-2.34,8.43,9.07h0a.34.34,0,0,0,.48,0,.32.32,0,0,0,.09-.23.33.33,0,0,0,0-.15h0c-1.75-3.06-4.88-8.47-7.48-13a1.06,1.06,0,0,0-1.74-.39L28,11.07l-5.95-9.2,0-.05v0h0a1,1,0,0,0-1.6-.05h0l-.05.06,0,0Q10.48,15.12.53,28.37h0A.76.76,0,0,0,.7,29.42a.84.84,0,0,0,.43.14.89.89,0,0,0,.33-.08h0L2,29.2c5.53-2.86,14.75-2.2,26.09,1.73,3.77,3.2,17.37.29,14-3"/><polygon class="cls-1" points="1.32 28.64 21.27 3.49 27.46 13.66 31.13 11.44 39.63 22.83 42.43 28.32 30.06 26.58 23.26 23.67 13.09 23.67 6.82 25.35 1.32 28.64"/><path class="cls-2" d="M11.76,20.49a4.8,4.8,0,0,1-.42-1A4.3,4.3,0,0,1,12.53,15a2.82,2.82,0,0,1,3.33-.12,3.85,3.85,0,0,1,1.34,1.74c.9,1.94,4.89,3.64,7.75,2.88.78-.2,2.43-1.18,5.74-3.13a2.78,2.78,0,0,1,1.64-.46,3.2,3.2,0,0,1,2.22,1.37A4.19,4.19,0,0,1,35,20.67a6.88,6.88,0,0,1-2.53,3.66,12.11,12.11,0,0,1-4.53,2.51,14.57,14.57,0,0,1-10-.69A14.19,14.19,0,0,1,11.76,20.49Z"/><path class="cls-3" d="M16.62,16.39a.89.89,0,0,0-.59.78,1,1,0,0,0,.89.82c.18,0,.31,0,.4.05s0,.27.06.5a.87.87,0,0,0,.75.67c.33,0,.5-.27.67-.18s.05.32.15.61a1.35,1.35,0,0,0,1.41.9c.34-.1.41-.45.67-.43s.25.31.53.58a1.41,1.41,0,0,0,1.64.25c.26-.23.19-.64.36-.67s.22.31.54.54a1.25,1.25,0,0,0,1.44,0c.34-.31.15-.88.43-1s.25.13.57.21a1.22,1.22,0,0,0,1.32-.53c.09-.25-.05-.41.08-.56s.41,0,.73-.12a1,1,0,0,0,.59-1.15.6.6,0,0,0-.25-.35c-.58-.36-1.7,1-3.07,1.7a6.82,6.82,0,0,1-6.06-.25C18.13,17.82,17.48,16.1,16.62,16.39Z"/><path class="cls-4" d="M20.74,27.05c.11.26.8.05,1.67.42a3.77,3.77,0,0,1,1.82,2.64,15.86,15.86,0,0,1,.3,2.65,8.61,8.61,0,0,0,1.31,4A6.73,6.73,0,0,0,30,39.26a5.23,5.23,0,0,0,4.27-.65,2.67,2.67,0,0,0,1.12-1.78,3,3,0,0,0-1.18-2.42c-1-.82-1.58-.35-2.93-1.08A5,5,0,0,1,29,30.83c-.49-1.4.36-1.91-.19-3.4-.29-.79-1-2-2-2.06-.6-.07-.78.33-1.69.33s-1-.32-1.65-.37C22,25.23,20.57,26.66,20.74,27.05Z"/><path class="cls-5" d="M55.28,5.1v9.47h8.63V5.1c0-1.48,4.11-1.5,4.11,0V28.57c0,.67-4.11.78-4.11,0V18.22H55.28V28.57c0,.78-4.11.84-4.11,0V5.1C51.17,3.93,55.28,3.91,55.28,5.1Z"/><path class="cls-5" d="M77,7a2.27,2.27,0,0,1-4.53,0A2.27,2.27,0,1,1,77,7ZM72.65,28.57v-17c0-1.65,4.14-1.66,4.14,0v17C76.79,29.74,72.65,29.67,72.65,28.57Z"/><path class="cls-5" d="M85.15,19.09h.07a23,23,0,0,1,1.22-2s2.83-3.9,3.69-5.46,4.24-1.38,4.8,0c-1.48,1.58-5.67,7-5.67,7s5,7.67,6.4,10a3.92,3.92,0,0,1-4.94,0L86.4,21.08l-1.25,1.67v5.82c0,.91-4.11.94-4.11,0V4c0-1.67,4.11-1.72,4.11,0Z"/><path class="cls-5" d="M100.15,21.22c.11,3.27,2.3,4.53,4.81,4.53a15,15,0,0,0,4.18-.74c.84-.23,2,2.44.63,2.89a17,17,0,0,1-5.44,1c-5.15,0-8.11-3.34-8.11-8.53,0-5,2.79-9.09,7.7-9.09s6.42,4.39,6.46,7.13c0,1.29.17,2.73-.42,2.73Zm6.62-2.89c0-1.92-.73-4.18-3.13-4.18s-3.31,2.37-3.49,4.18Z"/><path class="cls-5" d="M208.2,21.22c.1,3.27,2.3,4.53,4.8,4.53a15,15,0,0,0,4.18-.74c.84-.23,2,2.44.63,2.89a17,17,0,0,1-5.43,1c-5.16,0-8.12-3.34-8.12-8.53,0-5,2.79-9.09,7.7-9.09s6.42,4.39,6.46,7.13c0,1.29.17,2.73-.42,2.73Zm6.61-2.89c0-1.92-.73-4.18-3.13-4.18s-3.31,2.37-3.48,4.18Z"/><path class="cls-5" d="M113.84,16.87c0-2.06-.15-2.62-.14-5.26,0-.77,3.58-.94,3.58,0,0,1.21.18,3,.18,3h.1c1.48-2.1,1.61-2.38,2.54-3.1A5.8,5.8,0,0,1,123,10.33c1-.15,1,4.1-.11,4.18a4.72,4.72,0,0,0-3,.9,4.49,4.49,0,0,0-1.83,2.92,7.75,7.75,0,0,0-.14,1.39v8.85h-4.11Z"/><path class="cls-5" d="M125.15,24.74a11.33,11.33,0,0,0,3.9,1.14c1.71,0,2.55-.76,2.55-1.91S131,22.23,129,21.43c-3.07-1.26-4.32-3-4.32-4.95,0-3,2.4-5.22,6.06-5.22a12.09,12.09,0,0,1,4.14,1c.87.31.12,3.36-.83,2.93a7.25,7.25,0,0,0-3.21-.91c-1.46,0-2.22.77-2.22,1.78s.69,1.57,2.68,2.4c2.82,1.19,4.18,2.79,4.21,5.16,0,3.2-2.4,5.29-6.51,5.29a12.32,12.32,0,0,1-4.7-1.11C122.66,27.15,123.76,24.17,125.15,24.74Z"/><path class="cls-5" d="M155.86,27.63a25,25,0,0,1-6.65,1.18c-3.48,0-6.19-.91-8.21-2.89A12.33,12.33,0,0,1,137.79,17c0-7.83,5.19-12.19,12-12.19a18.06,18.06,0,0,1,5.43,1c1.15.32.25,3.75-.87,3.38a12.86,12.86,0,0,0-4.56-.87c-4.39,0-7.7,2.75-7.7,8.53s3,8.5,7.17,8.5c1.29,0,3,.22,3-.39s0-5.35,0-6.05-3.25-.44-4-.42-.76-2.86,0-2.86h7.59C156.53,15.69,156.86,27.32,155.86,27.63Z"/><path class="cls-5" d="M173.9,23.52c0,2,0,3.85.14,5.05s-3.53,1.32-3.59,0-.21-2.34-.21-2.34h-.07a5.66,5.66,0,0,1-4.94,2.68c-3.1,0-5.43-2-5.43-7.2V11.61c0-1.61,4.11-1.63,4.11,0v9.47c0,2.68.76,4.46,2.82,4.46a3.11,3.11,0,0,0,2.85-2.09,4.21,4.21,0,0,0,.21-1.4V11.61c0-1.55,4.11-1.6,4.11,0Z"/><path class="cls-5" d="M182.5,7A2.27,2.27,0,0,1,178,7a2.27,2.27,0,1,1,4.53,0Zm-4.32,21.59v-17c0-.83,4.14-.84,4.14,0v17C182.32,29.3,178.18,29.33,178.18,28.57Z"/><path class="cls-5" d="M200.92,4V23.86c0,1.64.14,3.43.14,4.71s-3.62,1.34-3.62,0a15.18,15.18,0,0,0-.21-2.48h-.07a5.49,5.49,0,0,1-4.91,2.82c-3.83,0-6.62-3.48-6.62-8.67,0-5.78,3.24-9,6.89-9a4.63,4.63,0,0,1,4.22,2.09h.07V4C196.81,2.32,200.92,2.36,200.92,4ZM196.81,18.5a5.45,5.45,0,0,0-.07-1.08,3.38,3.38,0,0,0-3.21-2.89c-2.47,0-3.76,2.51-3.76,5.61s1.36,5.47,3.73,5.47a3.26,3.26,0,0,0,3.17-2.79,4.44,4.44,0,0,0,.14-1.18Z"/></svg>